<?xml version="1.0" standalone="no"?>
<!DOCTYPE svg PUBLIC "-//W3C//DTD SVG 20010904//EN"
 "http://www.w3.org/TR/2001/REC-SVG-20010904/DTD/svg10.dtd">
<svg version="1.0" xmlns="http://www.w3.org/2000/svg"
 width="512.000000pt" height="512.000000pt" viewBox="0 0 512.000000 512.000000"
 preserveAspectRatio="xMidYMid meet">

<g transform="translate(0.000000,512.000000) scale(0.100000,-0.100000)"
fill="#000000" stroke="none">
<path d="M515 4903 c-55 -7 -138 -34 -195 -63 -133 -67 -248 -202 -292 -343
l-23 -72 0 -1865 0 -1865 23 -72 c57 -183 209 -329 408 -390 56 -17 149 -18
2124 -18 1977 0 2068 1 2125 18 194 60 335 192 403 378 l27 74 3 1842 c3 2024
5 1920 -57 2048 -69 140 -194 249 -346 302 l-80 28 -2045 1 c-1125 1 -2058 -1
-2075 -3z m4120 -336 c50 -23 110 -80 138 -132 17 -32 22 -62 25 -157 l4 -118
-2242 0 -2242 0 4 118 c4 136 18 172 90 239 40 36 72 52 133 66 11 3 927 4
2035 3 1917 -1 2017 -2 2055 -19z m163 -2284 l-3 -1558 -22 -40 c-28 -54 -100
-119 -149 -136 -58 -21 -4070 -21 -4128 0 -49 17 -121 82 -149 136 l-22 40 -3
1558 -2 1557 2240 0 2240 0 -2 -1557z"/>
<path d="M3723 2771 c-242 -7 -249 -9 -291 -94 -32 -62 -24 -114 25 -168 45
-49 81 -59 221 -59 l112 0 0 -424 c0 -422 0 -423 23 -457 32 -49 105 -83 158
-74 53 9 115 64 129 113 6 22 10 198 10 438 l0 402 128 3 c112 4 131 7 165 28
51 31 81 91 74 149 -5 50 -29 87 -77 120 -31 21 -42 22 -229 22 -108 0 -205 2
-216 3 -11 2 -115 1 -232 -2z"/>
<path d="M1360 2748 c-18 -13 -43 -36 -54 -51 -21 -28 -21 -39 -24 -553 -2
-506 -2 -525 17 -563 58 -112 224 -113 281 0 18 34 20 59 20 226 l0 188 116
-210 c64 -115 130 -225 147 -243 56 -58 145 -63 211 -11 57 45 56 33 56 599 0
576 1 567 -63 612 -47 34 -132 37 -176 6 -68 -46 -75 -71 -81 -278 l-5 -185
-113 205 c-63 113 -124 216 -135 228 -52 57 -139 69 -197 30z"/>
<path d="M2608 2756 c-120 -43 -215 -142 -249 -261 -5 -16 -9 -178 -9 -360 -1
-373 3 -397 69 -485 47 -63 115 -113 185 -137 43 -15 85 -18 266 -18 208 0
216 1 253 24 51 31 81 91 74 149 -5 50 -29 87 -77 120 -31 21 -43 22 -219 22
-229 0 -231 1 -231 95 l0 64 208 3 c197 3 209 4 245 27 51 31 81 91 74 149 -5
50 -29 87 -77 120 -32 21 -42 22 -241 22 l-209 0 0 69 c0 43 5 72 13 79 7 6
92 12 207 14 184 3 197 4 233 27 51 31 81 91 74 149 -5 50 -29 87 -77 120 -32
21 -41 22 -254 22 -156 -1 -232 -5 -258 -14z"/>
<path d="M720 1788 c-75 -52 -99 -131 -61 -205 78 -154 317 -86 298 85 -9 81
-77 142 -157 142 -32 0 -57 -7 -80 -22z"/>
</g>
</svg>
