<?xml version="1.0" standalone="no"?>
<!DOCTYPE svg PUBLIC "-//W3C//DTD SVG 20010904//EN"
 "http://www.w3.org/TR/2001/REC-SVG-20010904/DTD/svg10.dtd">
<svg version="1.0" xmlns="http://www.w3.org/2000/svg"
 width="512.000000pt" height="512.000000pt" viewBox="0 0 512.000000 512.000000"
 preserveAspectRatio="xMidYMid meet">

<g transform="translate(0.000000,512.000000) scale(0.100000,-0.100000)"
fill="#000000" stroke="none">
<path d="M2479 5107 c-83 -24 -132 -64 -366 -300 -225 -226 -233 -235 -233
-273 1 -21 6 -48 13 -60 25 -44 413 -434 441 -444 21 -7 47 -5 104 10 91 24
148 25 227 5 84 -22 150 -61 205 -122 100 -109 138 -248 106 -378 -38 -152
-41 -143 65 -251 52 -53 151 -150 221 -215 141 -132 145 -133 242 -104 70 21
190 19 258 -4 131 -45 230 -146 273 -280 28 -85 18 -217 -22 -301 -56 -118
-141 -193 -261 -230 -225 -70 -463 56 -534 282 -23 76 -23 156 1 239 10 36 17
78 14 93 -4 17 -76 98 -207 231 l-201 205 -48 0 c-40 0 -54 -5 -78 -29 l-29
-29 0 -596 c0 -431 3 -602 12 -621 6 -14 37 -40 73 -59 254 -143 309 -465 114
-671 -87 -92 -185 -135 -309 -135 -124 0 -222 43 -309 135 -158 167 -158 413
1 581 29 30 80 71 113 90 36 19 67 45 73 59 9 19 12 193 12 633 0 513 -2 611
-14 628 -8 11 -45 38 -82 60 -185 108 -259 299 -198 511 9 30 12 63 8 79 -5
19 -85 107 -228 252 l-221 222 -45 0 -45 0 -778 -777 c-873 -873 -832 -826
-832 -968 0 -146 -82 -54 1207 -1348 1290 -1295 1197 -1210 1343 -1212 142 -1
40 -93 1336 1202 852 851 1173 1178 1190 1212 31 61 39 198 14 257 -20 49 -57
104 -70 104 -5 0 -523 512 -1150 1138 -1004 1003 -1146 1141 -1192 1161 -66
27 -155 35 -214 18z"/>
</g>
</svg>
